<?xml version="1.0" encoding="UTF-8" standalone="no"?>
<!DOCTYPE svg PUBLIC "-//W3C//DTD SVG 1.1//EN" "http://www.w3.org/Graphics/SVG/1.1/DTD/svg11.dtd">
<svg width="100%" height="100%" viewBox="0 0 13 13" version="1.1" xmlns="http://www.w3.org/2000/svg" xmlns:xlink="http://www.w3.org/1999/xlink" xml:space="preserve" xmlns:serif="http://www.serif.com/" style="fill-rule:evenodd;clip-rule:evenodd;stroke-linejoin:round;stroke-miterlimit:2;">
    <g>
        <g transform="matrix(9,0,0,9,-16,-16)">
            <rect x="2" y="2" width="1" height="1" style="fill:white;"/>
        </g>
        <g transform="matrix(5,0,0,1,-6,-1)">
            <rect x="2" y="2" width="1" height="1" style="fill:white;"/>
        </g>
        <g transform="matrix(5,0,0,1,-6,9)">
            <rect x="2" y="2" width="1" height="1" style="fill:white;"/>
        </g>
        <g transform="matrix(-0.00309,4.999999,-1,-0.000618,4.007724,-5.998761)">
            <rect x="2" y="2" width="1" height="1" style="fill:white;"/>
        </g>
        <g transform="matrix(-0.00309,4.999999,-1,-0.000618,14.009269,-5.998453)">
            <rect x="2" y="2" width="1" height="1" style="fill:white;"/>
        </g>
    </g>
    <g>
        <g transform="matrix(1,0,0,1,4,-2)">
            <rect x="2" y="2" width="1" height="1" style="fill:rgb(13,0,0);"/>
        </g>
        <g transform="matrix(1,0,0,1,5,-2)">
            <rect x="2" y="2" width="1" height="1" style="fill:rgb(13,0,0);"/>
        </g>
        <g transform="matrix(1,0,0,1,3,-2)">
            <rect x="2" y="2" width="1" height="1" style="fill:rgb(13,0,0);"/>
        </g>
        <g transform="matrix(1,0,0,1,2,-2)">
            <rect x="2" y="2" width="1" height="1" style="fill:rgb(13,0,0);"/>
        </g>
        <g transform="matrix(1,0,0,1,6,-2)">
            <rect x="2" y="2" width="1" height="1" style="fill:rgb(13,0,0);"/>
        </g>
        <g transform="matrix(1,0,0,1,7,-1)">
            <rect x="2" y="2" width="1" height="1" style="fill:rgb(13,0,0);"/>
        </g>
        <g transform="matrix(1,0,0,1,8,-1)">
            <rect x="2" y="2" width="1" height="1" style="fill:rgb(13,0,0);"/>
        </g>
        <g transform="matrix(1,0,0,1,9,0)">
            <rect x="2" y="2" width="1" height="1" style="fill:rgb(13,0,0);"/>
        </g>
        <g transform="matrix(1,0,0,1,9,1)">
            <rect x="2" y="2" width="1" height="1" style="fill:rgb(13,0,0);"/>
        </g>
        <g transform="matrix(1,0,0,1,10,2)">
            <rect x="2" y="2" width="1" height="1" style="fill:rgb(13,0,0);"/>
        </g>
        <g transform="matrix(1,0,0,1,10,3)">
            <rect x="2" y="2" width="1" height="1" style="fill:rgb(13,0,0);"/>
        </g>
        <g transform="matrix(1,0,0,1,10,4)">
            <rect x="2" y="2" width="1" height="1" style="fill:rgb(13,0,0);"/>
        </g>
        <g transform="matrix(1,0,0,1,10,5)">
            <rect x="2" y="2" width="1" height="1" style="fill:rgb(13,0,0);"/>
        </g>
        <g transform="matrix(1,0,0,1,10,6)">
            <rect x="2" y="2" width="1" height="1" style="fill:rgb(13,0,0);"/>
        </g>
        <g transform="matrix(1,0,0,1,9,7)">
            <rect x="2" y="2" width="1" height="1" style="fill:rgb(13,0,0);"/>
        </g>
        <g transform="matrix(1,0,0,1,9,8)">
            <rect x="2" y="2" width="1" height="1" style="fill:rgb(13,0,0);"/>
        </g>
        <g transform="matrix(1,0,0,1,8,9)">
            <rect x="2" y="2" width="1" height="1" style="fill:rgb(13,0,0);"/>
        </g>
        <g transform="matrix(1,0,0,1,7,9)">
            <rect x="2" y="2" width="1" height="1" style="fill:rgb(13,0,0);"/>
        </g>
        <g transform="matrix(1,0,0,1,6,10)">
            <rect x="2" y="2" width="1" height="1" style="fill:rgb(13,0,0);"/>
        </g>
        <g transform="matrix(1,0,0,1,5,10)">
            <rect x="2" y="2" width="1" height="1" style="fill:rgb(13,0,0);"/>
        </g>
        <g transform="matrix(1,0,0,1,4,10)">
            <rect x="2" y="2" width="1" height="1" style="fill:rgb(13,0,0);"/>
        </g>
        <g transform="matrix(1,0,0,1,3,10)">
            <rect x="2" y="2" width="1" height="1" style="fill:rgb(13,0,0);"/>
        </g>
        <g transform="matrix(1,0,0,1,2,10)">
            <rect x="2" y="2" width="1" height="1" style="fill:rgb(13,0,0);"/>
        </g>
        <g transform="matrix(1,0,0,1,1,9)">
            <rect x="2" y="2" width="1" height="1" style="fill:rgb(13,0,0);"/>
        </g>
        <g transform="matrix(1,0,0,1,1,9)">
            <rect x="2" y="2" width="1" height="1" style="fill:rgb(13,0,0);"/>
        </g>
        <g transform="matrix(1,0,0,1,0,9)">
            <rect x="2" y="2" width="1" height="1" style="fill:rgb(13,0,0);"/>
        </g>
        <g transform="matrix(1,0,0,1,-1,8)">
            <rect x="2" y="2" width="1" height="1" style="fill:rgb(13,0,0);"/>
        </g>
        <g transform="matrix(1,0,0,1,-1,7)">
            <rect x="2" y="2" width="1" height="1" style="fill:rgb(13,0,0);"/>
        </g>
        <g transform="matrix(1,0,0,1,-1,7)">
            <rect x="2" y="2" width="1" height="1" style="fill:rgb(13,0,0);"/>
        </g>
        <g transform="matrix(1,0,0,1,-2,6)">
            <rect x="2" y="2" width="1" height="1" style="fill:rgb(13,0,0);"/>
        </g>
        <g transform="matrix(1,0,0,1,-2,5)">
            <rect x="2" y="2" width="1" height="1" style="fill:rgb(13,0,0);"/>
        </g>
        <g transform="matrix(1,0,0,1,-2,4)">
            <rect x="2" y="2" width="1" height="1" style="fill:rgb(13,0,0);"/>
        </g>
        <g transform="matrix(1,0,0,1,-2,4)">
            <rect x="2" y="2" width="1" height="1" style="fill:rgb(13,0,0);"/>
        </g>
        <g transform="matrix(1,0,0,1,-2,3)">
            <rect x="2" y="2" width="1" height="1" style="fill:rgb(13,0,0);"/>
        </g>
        <g transform="matrix(1,0,0,1,-2,2)">
            <rect x="2" y="2" width="1" height="1" style="fill:rgb(13,0,0);"/>
        </g>
        <g transform="matrix(1,0,0,1,-1,1)">
            <rect x="2" y="2" width="1" height="1" style="fill:rgb(13,0,0);"/>
        </g>
        <g transform="matrix(1,0,0,1,-1,0)">
            <rect x="2" y="2" width="1" height="1" style="fill:rgb(13,0,0);"/>
        </g>
        <g transform="matrix(1,0,0,1,-1,0)">
            <rect x="2" y="2" width="1" height="1" style="fill:rgb(13,0,0);"/>
        </g>
        <g transform="matrix(1,0,0,1,0,-1)">
            <rect x="2" y="2" width="1" height="1" style="fill:rgb(13,0,0);"/>
        </g>
        <g transform="matrix(1,0,0,1,1,-1)">
            <rect x="2" y="2" width="1" height="1" style="fill:rgb(13,0,0);"/>
        </g>
    </g>
    <g transform="matrix(1,0,0,1,1,0)">
        <g transform="matrix(1,0,0,1,3,2)">
            <rect x="2" y="2" width="1" height="1" style="fill:rgb(13,0,0);"/>
        </g>
        <g transform="matrix(1,0,0,1,3,3)">
            <rect x="2" y="2" width="1" height="1" style="fill:rgb(13,0,0);"/>
        </g>
        <g transform="matrix(1,0,0,1,3,4)">
            <rect x="2" y="2" width="1" height="1" style="fill:rgb(13,0,0);"/>
        </g>
        <g transform="matrix(1,0,0,1,3,5)">
            <rect x="2" y="2" width="1" height="1" style="fill:rgb(13,0,0);"/>
        </g>
        <g transform="matrix(1,0,0,1,3,5)">
            <rect x="2" y="2" width="1" height="1" style="fill:rgb(13,0,0);"/>
        </g>
        <g transform="matrix(1,0,0,1,4,4)">
            <rect x="2" y="2" width="1" height="1" style="fill:rgb(13,0,0);"/>
        </g>
        <g transform="matrix(1,0,0,1,4,3)">
            <rect x="2" y="2" width="1" height="1" style="fill:rgb(13,0,0);"/>
        </g>
        <g transform="matrix(1,0,0,1,4,5)">
            <rect x="2" y="2" width="1" height="1" style="fill:rgb(13,0,0);"/>
        </g>
        <g transform="matrix(1,0,0,1,3,6)">
            <rect x="2" y="2" width="1" height="1" style="fill:rgb(13,0,0);"/>
        </g>
        <g transform="matrix(1,0,0,1,2,2)">
            <rect x="2" y="2" width="1" height="1" style="fill:rgb(13,0,0);"/>
        </g>
        <g transform="matrix(1,0,0,1,2,3)">
            <rect x="2" y="2" width="1" height="1" style="fill:rgb(13,0,0);"/>
        </g>
        <g transform="matrix(1,0,0,1,2,4)">
            <rect x="2" y="2" width="1" height="1" style="fill:rgb(13,0,0);"/>
        </g>
        <g transform="matrix(1,0,0,1,2,5)">
            <rect x="2" y="2" width="1" height="1" style="fill:rgb(13,0,0);"/>
        </g>
        <g transform="matrix(1,0,0,1,2,6)">
            <rect x="2" y="2" width="1" height="1" style="fill:rgb(13,0,0);"/>
        </g>
        <g transform="matrix(1,0,0,1,5,4)">
            <rect x="2" y="2" width="1" height="1" style="fill:rgb(13,0,0);"/>
        </g>
    </g>
</svg>
