<?xml version="1.0" encoding="UTF-8" standalone="no"?>
<!DOCTYPE svg PUBLIC "-//W3C//DTD SVG 1.1//EN" "http://www.w3.org/Graphics/SVG/1.1/DTD/svg11.dtd">
<svg width="100%" height="100%" viewBox="0 0 13 13" version="1.1" xmlns="http://www.w3.org/2000/svg" xmlns:xlink="http://www.w3.org/1999/xlink" xml:space="preserve" xmlns:serif="http://www.serif.com/" style="fill-rule:evenodd;clip-rule:evenodd;stroke-linejoin:round;stroke-miterlimit:2;">
    <g transform="matrix(1,0,0,1.125,2,-0.25)">
        <g transform="matrix(2,0,0,8,-3,-14)">
            <rect x="2" y="2" width="1" height="1" style="fill:rgb(13,0,0);"/>
        </g>
        <g transform="matrix(1,0,0,0.888889,0,0.222222)">
            <rect x="3" y="3" width="1" height="7"/>
        </g>
        <g transform="matrix(1,0,0,0.634921,1,1.873016)">
            <rect x="3" y="3" width="1" height="7"/>
        </g>
        <g transform="matrix(1,0,0,0.380952,2,3.52381)">
            <rect x="3" y="3" width="1" height="7"/>
        </g>
        <g transform="matrix(1,0,0,0.380952,2,3.52381)">
            <rect x="3" y="3" width="1" height="7"/>
        </g>
        <g transform="matrix(1,0,0,0.126984,3,5.174603)">
            <rect x="3" y="3" width="1" height="7"/>
        </g>
        <g transform="matrix(2,0,0,1.142857,1,-1.428571)">
            <rect x="3" y="3" width="1" height="7"/>
        </g>
    </g>
</svg>
